<svg xmlns="http://www.w3.org/2000/svg" xmlns:xlink="http://www.w3.org/1999/xlink" width="80" height="85" version="1.1" viewBox="0 0 80 85"><title>icon_1</title><desc>Created with Sketch.</desc><g id="Page-1" fill="none" fill-rule="evenodd" stroke="none" stroke-width="1"><g id="Taager_Dark" fill-rule="nonzero" transform="translate(-535.000000, -2236.000000)"><g id="Group-12" transform="translate(158.000000, 2154.000000)"><g id="icon_1" transform="translate(377.000000, 82.000000)"><ellipse id="XMLID_27_" cx="56.018" cy="31.434" fill="#E6FBFA" rx="16.877" ry="16.804"/><polygon id="XMLID_26_" fill="#010D19" points="28.421 1.586 35.204 4.829 35.114 8.411 21.494 8.482 23.284 4.419"/><polygon id="XMLID_25_" fill="#29B6AB" points="40.197 31.274 24 31.167 21.172 37.76 27.043 52.479 25.951 55.188 22.479 54.974 20.081 52.051 7.696 52.051 8.555 31.167 18.022 31.381 14.765 36.138 17.593 44.906 22.586 53.887 24.752 54.653 26.058 52.586 25.306 49.877 20.295 37.653 21.387 34.303 24.107 30.507 41.396 31.042 39.982 52.479 30.962 52.693 27.579 51.838 21.709 37.76 23.123 35.051 24.984 32.022"/><g id="XMLID_29_" fill="#000"><path id="XMLID_24_" d="M41.3243848,84.8396226 L34.2371365,84.8396226 C31.8926174,84.8396226 29.9776286,82.932914 29.9776286,80.5985325 L29.9776286,64.2222222 L27.8836689,60.4800839 L30.3534676,59.1079665 L32.8053691,63.4916143 L32.8053691,80.5985325 C32.8053691,81.3825996 33.4496644,82.0062893 34.2192394,82.0062893 L41.3064877,82.0062893 C41.3064877,80.9371069 40.6263982,79.9748428 39.5883669,79.6184486 L37.0469799,78.7809224 L37.0469799,62.9213836 C37.0469799,62.5649895 36.9574944,62.2085954 36.7785235,61.9056604 L31.8210291,53.0136268 L34.3087248,51.6415094 L39.2662192,60.533543 C39.6778523,61.2641509 39.8926174,62.0838574 39.8926174,62.9392034 L39.8926174,76.7494759 L40.4832215,76.9454927 C42.6845638,77.6761006 44.1521253,79.7253669 44.1521253,82.0419287 C44.1521253,83.5922432 42.8814318,84.8396226 41.3243848,84.8396226 Z"/><path id="XMLID_23_" d="M24.2863535,84.8396226 L17.1812081,84.8396226 C14.836689,84.8396226 12.9217002,82.932914 12.9217002,80.5985325 C12.9217002,79.5471698 13.0469799,78.5136268 13.2796421,77.4979036 L19.1856823,52.033543 L21.9597315,52.6750524 L16.0536913,78.139413 C15.8747204,78.9412998 15.7673378,79.778826 15.7673378,80.6163522 C15.7673378,81.4004193 16.4116331,82.024109 17.1812081,82.024109 L24.2684564,82.024109 C24.2684564,80.9549266 23.5883669,79.9926625 22.5503356,79.6362683 L20.2416107,78.870021 L23.1946309,66.1645702 L25.9686801,66.8060797 L23.606264,77.0167715 C25.7360179,77.7830189 27.1498881,79.7966457 27.1319911,82.0597484 C27.114094,83.5922432 25.8434004,84.8396226 24.2863535,84.8396226 Z"/><path id="XMLID_50_" d="M28.5458613,19.851153 C23.8568233,19.851153 20.0268456,16.0555556 20.0268456,11.3689727 L20.0268456,8.53563941 C20.0268456,3.86687631 23.8389262,0.0534591195 28.5458613,0.0534591195 C33.2527964,0.0534591195 37.064877,3.8490566 37.064877,8.53563941 L37.064877,11.3689727 C37.064877,16.0377358 33.2348993,19.851153 28.5458613,19.851153 Z M28.5458613,2.88679245 C25.4138702,2.88679245 22.8724832,5.41719078 22.8724832,8.53563941 L22.8724832,11.3689727 C22.8724832,14.4874214 25.4138702,17.0178197 28.5458613,17.0178197 C31.6778523,17.0178197 34.2192394,14.4874214 34.2192394,11.3689727 L34.2192394,8.53563941 C34.2192394,5.41719078 31.6778523,2.88679245 28.5458613,2.88679245 Z"/><path id="XMLID_20_" d="M21.1722595,53.7620545 L10.0939597,53.7620545 C8.50111857,53.7620545 7.24832215,52.5146751 7.24832215,50.9287212 L7.24832215,32.5566038 C7.24832215,31.0062893 8.55480984,29.7232704 10.147651,29.7232704 L17.753915,29.7232704 L17.753915,32.5566038 L10.1655481,32.5566038 L10.0939597,50.9287212 L21.1722595,50.9287212 L21.1722595,53.7620545 Z"/><path id="XMLID_19_" d="M39.8389262,53.7620545 L27.1319911,53.7620545 L27.1319911,50.9287212 L39.8389262,50.9287212 L39.9105145,32.5566038 L28.5279642,32.5566038 L28.5279642,29.7232704 L39.8389262,29.7232704 C41.4317673,29.7232704 42.738255,30.9884696 42.738255,32.5566038 L42.738255,50.9287212 C42.738255,52.4968553 41.4317673,53.7620545 39.8389262,53.7620545 Z"/><path id="XMLID_18_" d="M24.2863535,56.5775681 C22.6040268,56.5775681 21.082774,55.5974843 20.4026846,54.0649895 L13.3154362,38.5262055 C13.064877,37.9737945 12.9395973,37.3857442 12.9395973,36.7976939 C12.9395973,35.9245283 13.2080537,35.0691824 13.7270694,34.3563941 L20.8322148,24.4486373 C21.6375839,23.3259958 22.9261745,22.6666667 24.2863535,22.6666667 L34.2192394,22.6666667 C35.8478747,22.6666667 37.3512304,23.6111111 38.049217,25.072327 L40.6263982,30.5607966 L38.049217,31.754717 L35.4899329,26.2840671 C35.2572707,25.802935 34.7740492,25.5 34.2192394,25.5 L24.2863535,25.5 C23.8210291,25.5 23.409396,25.7138365 23.1409396,26.10587 L16.0357942,35.9958071 C15.8568233,36.2274633 15.7673378,36.5125786 15.7673378,36.7976939 C15.7673378,36.9937107 15.803132,37.1897275 15.8926174,37.3679245 L22.9798658,52.9067086 C23.212528,53.4234801 23.7315436,53.7620545 24.2863535,53.7620545 C25.0738255,53.7620545 25.7002237,53.1205451 25.7002237,52.3542977 C25.7002237,52.1582809 25.6644295,51.9622642 25.5749441,51.7840671 L18.8098434,36.975891 L24,29.7410901 L29.9597315,29.7410901 L29.9597315,32.5744235 L25.4675615,32.5744235 L22.0850112,37.2966457 L28.1879195,50.6257862 C28.4384787,51.1781971 28.5637584,51.7484277 28.5637584,52.3542977 C28.5458613,54.6886792 26.6308725,56.5775681 24.2863535,56.5775681 Z"/><path id="XMLID_17_" d="M44.1521253,52.336478 C42.5055928,52.336478 40.98434,51.3742138 40.2863535,49.8951782 L40.0178971,49.3249476 L42.5950783,48.1310273 L42.8635347,48.7012579 C43.0961969,49.2002096 43.5973154,49.5209644 44.1521253,49.5209644 C44.9395973,49.5209644 45.5659955,48.8794549 45.5659955,48.1132075 C45.5659955,47.8993711 45.5302013,47.7033543 45.4407159,47.5251572 L40.0357942,35.9779874 L42.6129754,34.7840671 L48.0178971,46.3312369 C48.2863535,46.9014675 48.4116331,47.4895178 48.4116331,48.1310273 C48.4116331,50.4297694 46.4966443,52.336478 44.1521253,52.336478 Z"/><path id="XMLID_16_" d="M56.3400447,49.4853249 C54.4608501,49.4853249 52.5995526,49.2002096 50.8277405,48.6477987 L51.6868009,45.9570231 C53.1901566,46.4203354 54.7651007,46.6698113 56.3579418,46.6698113 C64.9485459,46.6698113 71.9284116,39.7201258 71.9284116,31.1666667 C71.9284116,22.6132075 64.9485459,15.663522 56.3579418,15.663522 C55.1588367,15.663522 53.9776286,15.8060797 52.8143177,16.0733753 C52.1163311,16.2337526 51.4004474,16.4475891 50.7203579,16.7148847 L49.7002237,14.0775681 C50.5055928,13.7746331 51.3288591,13.5073375 52.1700224,13.3291405 C53.5302013,13.0083857 54.9440716,12.8480084 56.3400447,12.8480084 C66.4876957,12.8480084 74.7561521,21.0807128 74.7561521,31.1844864 C74.7561521,41.28826 66.4876957,49.4853249 56.3400447,49.4853249 Z"/><path id="XMLID_15_" d="M63.01566,54.1897275 L62.2281879,51.4811321 C65.6286353,50.5010482 68.7606264,48.6656184 71.2841163,46.1708595 L73.2885906,48.1844864 C70.4250559,51 66.8814318,53.0849057 63.01566,54.1897275 Z"/><path id="XMLID_14_" d="M76.2237136,44.6561845 L73.8791946,43.0524109 C74.3982103,42.2861635 74.8814318,41.4842767 75.310962,40.6467505 L77.852349,41.9297694 C77.3691275,42.8742138 76.8322148,43.8008386 76.2237136,44.6561845 Z"/><path id="XMLID_13_" d="M79.2841163,38.4371069 L76.5816555,37.581761 C76.8143177,36.8689727 77.0111857,36.1205451 77.1543624,35.3542977 L79.9284116,35.9245283 C79.7673378,36.7620545 79.5525727,37.6174004 79.2841163,38.4371069 Z"/><path id="XMLID_12_" d="M68.5637584,13.8459119 C65.1096197,11.4224319 61.1006711,10.0859539 56.9485459,9.96121593 L57.0201342,7.1278826 C61.7270694,7.25262055 66.2908277,8.7851153 70.1923937,11.5293501 L68.5637584,13.8459119 Z"/><path id="XMLID_11_" d="M45.4049217,20.1362683 L43.3825503,18.1582809 C44.2774049,17.2494759 44.8680089,16.7505241 45.9239374,16.0555556 L47.4988814,18.4077568 C46.6040268,18.9958071 46.1744966,19.3522013 45.4049217,20.1362683 Z"/><path id="XMLID_10_" d="M42.2908277,24.4308176 L39.7136465,23.254717 C40.196868,22.2033543 40.4295302,21.7578616 41.0917226,20.8134172 L43.4004474,22.4528302 C42.8635347,23.2190776 42.7024609,23.5398323 42.2908277,24.4308176 Z"/><polygon id="XMLID_9_" points="63.821 40.005 55.517 31.737 55.517 19.851 58.345 19.851 58.345 30.561 65.826 38.009"/><rect id="XMLID_8_" width="2.846" height="2.833" x="14.353" y="15.61"/><rect id="XMLID_7_" width="11.347" height="2.833" x=".161" y="15.61"/><rect id="XMLID_6_" width="14.192" height="2.833" x=".161" y="22.667"/><rect id="XMLID_5_" width="8.519" height="2.833" x="5.834" y="58.003"/><rect id="XMLID_4_" width="2.846" height="2.833" x=".161" y="58.003"/><rect id="XMLID_3_" width="2.846" height="2.833" x="56.931" y="65.06"/><rect id="XMLID_2_" width="9.933" height="2.833" x="62.604" y="65.06"/><rect id="XMLID_1_" width="19.866" height="2.833" x="21.441" y="7.128"/></g></g></g></g></g></svg>