<svg xmlns="http://www.w3.org/2000/svg" xmlns:xlink="http://www.w3.org/1999/xlink" width="114" height="140" version="1.1" viewBox="0 0 114 140"><title>test2</title><desc>Created with Sketch.</desc><g id="Page-1" fill="none" fill-rule="evenodd" stroke="none" stroke-width="1"><g id="Taager_Dark" fill-rule="nonzero" transform="translate(-1157.000000, -1444.000000)"><g id="Group-2" transform="translate(111.000000, 1444.000000)"><g id="test2" transform="translate(1046.000000, 0.000000)"><g id="Group"><g id="Shape"><path fill="#FFD8C9" d="M18.1905612,20.379562 L18.1033163,16.540146 C18.1033163,14.0875912 17.2163265,11.7372263 15.6168367,9.89781022 L11.5017857,5.19708029 L3.48979592,9.21167883 L10.4548469,24.6423358 L18.1905612,20.379562 Z" transform="translate(52.928571, 23.357664)"/><path fill="#243644" d="M8.07015306,21.4744526 L16.2420918,17.9708029 C16.5619898,17.8394161 16.707398,17.459854 16.5765306,17.1386861 L9.46607143,0.394160584 C9.33520408,0.0729927007 8.95714286,-0.0729927007 8.6372449,0.0583941606 L0.465306122,3.5620438 C0.145408163,3.69343066 -3.15997228e-14,4.0729927 0.130867347,4.39416058 L7.24132653,21.1386861 C7.38673469,21.459854 7.7502551,21.620438 8.07015306,21.4744526 Z" transform="translate(52.928571, 23.357664)"/><path fill="#FFD8C9" d="M12.4760204,23.5328467 L11.8216837,21.1094891 C11.1382653,19.0510949 9.21887755,17.6788321 7.06683673,17.6788321 L5.77270408,15.3868613 L6.90688776,13.6934307 C7.2994898,13.1240876 7.19770408,12.350365 6.67423469,11.8978102 L6.64515306,11.8686131 C6.00535714,11.2992701 5.03112245,11.4452555 4.58035714,12.1605839 C4.23137755,12.7153285 3.85331633,13.3284672 3.53341837,13.8394161 C3.15535714,14.4525547 3.03903061,15.1970803 3.21352041,15.8832117 L3.50433673,17.0218978 C4.17321429,19.6788321 5.84540816,21.9854015 8.17193878,23.4160584 L10.0040816,24.8759124 L12.4760204,23.5328467 Z" transform="translate(52.928571, 23.357664)"/></g><polygon id="Shape" fill="#0B1725" points="68.167 64.453 89.252 79.416 79.32 96.496 68.022 91.022"/><polygon id="Shape" fill="#144981" points="68.167 67.81 89.252 79.416 68.167 64.453"/><ellipse id="Oval" cx="70.552" cy="86.409" fill="#144981" opacity=".3" rx="3.81" ry="3.825"/><ellipse id="Oval" cx="72.21" cy="80.204" fill="#144981" opacity=".3" rx="1.919" ry="1.927"/><ellipse id="Oval" cx="76.252" cy="87.241" fill="#144981" opacity=".3" rx="1.091" ry="1.095"/><polygon id="Shape" fill="#29B6AB" points="29.634 57.241 6.805 64.861 13.174 139.898 67.76 139.898 68.167 64.453 52.987 60.861"/><polygon id="Shape" fill="#198D84" points="8.216 66.35 33.444 60.934 66.611 66.92 68.022 91.022 68.167 64.453 52.987 60.861 29.634 57.241 6.805 64.861"/><path id="Shape" fill="#198D84" d="M13.1739796,139.89781 L57.0872449,139.89781 C57.0872449,139.89781 33.1966837,139.89781 27.6130102,108.80292 L9.30612245,94.3649635 L13.1739796,139.89781 Z"/><path id="Shape" fill="#0B1725" d="M6.80510204,64.8613139 L35.3778061,95.2554745 L17.1290816,113.868613 L6.12168367,100.131387 C-2.18112245,89.7664234 -1.90484694,74.9051095 6.80510204,64.8613139 Z"/><polygon id="Shape" fill="#1B3046" points="31.016 93.212 11.022 69.343 35.378 95.255 18.918 112.044"/><path id="Shape" fill="#446A96" d="M9.04438776,99.7226277 C1.23596939,89.9854015 1.01785714,76.3065693 8.21556122,66.350365 L6.80510204,64.8613139 C-1.90484694,74.9051095 -2.19566327,89.7664234 6.12168367,100.131387 L17.1290816,113.868613 L18.917602,112.043796 L9.04438776,99.7226277 Z" opacity=".3"/><ellipse id="Oval" cx="17.507" cy="107.927" fill="#446A96" opacity=".3" rx="3.81" ry="3.825"/><ellipse id="Oval" cx="20.735" cy="102.54" fill="#446A96" opacity=".3" rx="1.556" ry="1.562"/><ellipse id="Oval" cx="14.381" cy="102.54" fill="#446A96" opacity=".3" rx="1" ry="1"/><path id="Shape" fill="#FFD8C9" d="M86.7359694,106.262774 L89.7022959,103.883212 C90.0803571,103.576642 90.5165816,103.343066 90.9818878,103.211679 L96.3183673,101.576642 C96.8854592,101.40146 97.4961735,101.620438 97.8306122,102.116788 C98.165051,102.613139 98.1214286,103.284672 97.7288265,103.751825 L95.155102,106.759124 C94.8642857,107.094891 94.7915816,107.562044 94.9660714,107.956204 C95.155102,108.423358 95.6204082,108.715328 96.1293367,108.686131 L106.482398,107.956204 L112.618622,108.306569 C113.840051,108.379562 114.378061,109.89781 113.476531,110.715328 C113.272959,110.905109 113.025765,111.021898 112.764031,111.065693 L106.307908,112.072993 L98.3540816,116.175182 C97.3653061,116.686131 96.2456633,116.875912 95.1405612,116.729927 L85.2528061,115.416058 L86.7359694,106.262774 Z"/><path id="Shape" fill="#FFD8C9" d="M35.232398,98.729927 L86.7359694,106.262774 L85.2237245,115.386861 L34.1563776,119.416058 C29.9104592,119.751825 25.6936224,118.642336 22.1602041,116.277372 L35.232398,98.729927 Z"/><path id="Shape" fill="#FFB9AE" d="M32.1642857,106.335766 L33.5892857,102.773723 L32.455102,102.467153 L22.1602041,116.262774 C25.6936224,118.627737 29.925,119.737226 34.1563776,119.40146 L77.5607143,115.985401 L38.8239796,116.175182 C33.7492347,116.20438 30.2739796,111.065693 32.1642857,106.335766 Z"/><ellipse id="Oval" cx="31.146" cy="113.912" fill="#FFB9AE" rx="4.842" ry="4.861"/><polygon id="Shape" fill="#FFE6DE" points="36.425 98.905 34.913 100.964 86.736 106.263"/><path id="Shape" fill="#FFE6DE" d="M76.9790816,111.649635 C76.8482143,111.664234 76.7028061,111.664234 76.5719388,111.649635 L71.8752551,110.948905 C71.0755102,110.832117 70.5375,110.087591 70.6538265,109.284672 C70.7701531,108.481752 71.5117347,107.941606 72.3114796,108.058394 L77.0081633,108.759124 C77.8079082,108.875912 78.3459184,109.620438 78.2295918,110.423358 C78.1132653,111.080292 77.6043367,111.562044 76.9790816,111.649635 Z"/><path id="Shape" fill="#FFE6DE" d="M65.5209184,109.941606 C65.390051,109.956204 65.2591837,109.956204 65.1283163,109.941606 L49.5841837,107.810219 C48.7844388,107.708029 48.2318878,106.963504 48.3336735,106.160584 C48.4354592,105.357664 49.1770408,104.80292 49.9767857,104.905109 L65.5209184,107.036496 C66.3206633,107.138686 66.8732143,107.883212 66.7714286,108.686131 C66.6696429,109.343066 66.1607143,109.854015 65.5209184,109.941606 Z"/><ellipse id="Oval" cx="35.799" cy="108.365" fill="#FFB9AE" rx="1.251" ry="1.255"/><ellipse id="Oval" cx="39.057" cy="113.168" fill="#FFB9AE" rx="1.73" ry="1.737"/><path id="Shape" fill="#ECEFF0" d="M33.7492347,93.3576642 L15.0933673,111.284672 C14.6135204,111.751825 14.6135204,112.525547 15.1079082,112.992701 L19.8191327,117.357664 C20.2844388,117.781022 20.9969388,117.766423 21.4477041,117.313869 L39.5946429,98.6277372 C40.059949,98.1459854 40.0308673,97.3576642 39.5219388,96.919708 L35.3196429,93.3138686 C34.8543367,92.919708 34.1854592,92.9343066 33.7492347,93.3576642 Z"/><path id="Shape" fill="#ECEFF0" d="M86.4887755,77.1970803 L76.4119898,94.7445255 C76.0630102,95.3576642 76.3247449,96.1313869 76.9790816,96.4087591 L81.6321429,98.3357664 C82.1556122,98.5547445 82.7663265,98.350365 83.0716837,97.8686131 L93.2647959,81.0364964 C93.6137755,80.4671533 93.4102041,79.7372263 92.8285714,79.4160584 L88.0737245,76.7591241 C87.5066327,76.4525547 86.8086735,76.6423358 86.4887755,77.1970803 Z"/><polygon id="Shape" fill="#0B1725" points="29.634 53.504 23.411 59.328 42.241 74.876 47.33 67.153 29.634 57.241"/><path id="Shape" fill="#0B1725" d="M47.3303571,67.1532847 L54.8188776,71.4306569 L53.5538265,63.270073 C52.9285714,59.1970803 50.6747449,55.5620438 47.3303571,53.1678832 L47.3303571,67.1532847 Z"/><polygon id="Shape" fill="#FFD8C9" points="47.33 67.153 29.634 57.241 29.634 41.942 47.33 41.942"/><polygon id="Shape" fill="#FFD8C9" points="47.33 67.153 29.634 57.241 29.634 41.942 47.33 41.942"/><polygon id="Shape" fill="#FFD8C9" points="47.33 67.153 29.634 57.241 29.634 41.942 47.33 41.942"/><path id="Shape" fill="#FFB9AE" d="M29.6341837,51.1970803 C33.1094388,53.3284672 37.209949,54.540146 41.5721939,54.540146 C43.5497449,54.540146 45.4836735,54.2919708 47.3158163,53.810219 L47.3158163,41.9270073 L29.6341837,41.9270073 L29.6341837,51.1970803 Z"/><ellipse id="Oval" cx="40.162" cy="27.095" fill="#FFD8C9" rx="23.018" ry="23.109"/><path id="Shape" fill="#243644" d="M24.1522959,21.270073 L18.0015306,20.7883212 C17.4344388,22.7883212 17.1290816,24.9051095 17.1290816,27.0948905 C17.1290816,31.6934307 18.4668367,35.9854015 20.7788265,39.5912409 C22.1747449,29.7372263 24.1522959,21.270073 24.1522959,21.270073 Z"/><ellipse id="Oval" cx="21.608" cy="30.19" fill="#FFD8C9" rx="3.49" ry="3.504"/><path id="Shape" fill="#29B6AB" d="M17.3471939,23.9708029 L62.9762755,23.9708029 C61.4640306,12.6715328 51.8234694,3.97080292 40.1617347,3.97080292 C28.5,3.97080292 18.8594388,12.6861314 17.3471939,23.9708029 Z"/><path id="Shape" fill="#F9D88F" d="M40.1617347,3.97080292 C39.8854592,3.97080292 39.5946429,3.97080292 39.3183673,3.98540146 C50.6020408,4.39416058 59.8209184,12.9489051 61.2895408,23.9708029 L62.9617347,23.9708029 C61.4640306,12.6861314 51.8234694,3.97080292 40.1617347,3.97080292 Z" opacity=".3"/><path id="Shape" fill="#198D84" d="M49.4242347,15.4306569 C49.0607143,15.4306569 48.7117347,15.2992701 48.4209184,15.0364964 C45.4691327,12.2481752 41.6885204,10.7153285 37.7770408,10.7153285 C36.9772959,10.7153285 36.3229592,10.0583942 36.3229592,9.25547445 C36.3229592,8.45255474 36.9772959,7.79562044 37.7770408,7.79562044 C42.4446429,7.79562044 46.9377551,9.60583942 50.427551,12.919708 C51.0091837,13.4744526 51.0382653,14.3941606 50.4857143,14.9781022 C50.194898,15.2846715 49.8168367,15.4306569 49.4242347,15.4306569 Z" opacity=".3"/><path id="Shape" fill="#29B6AB" d="M73.8091837,23.9708029 C73.8091837,24.5693431 73.3147959,25.0656934 72.7186224,25.0656934 L17.2163265,25.0656934 C17.2744898,24.3211679 17.3762755,23.5912409 17.5071429,22.8759124 L72.7040816,22.8759124 C73.3147959,22.8759124 73.8091837,23.3722628 73.8091837,23.9708029 Z"/><ellipse id="Oval" cx="39.682" cy="2.365" fill="#198D84" rx="2.268" ry="2.277"/><path id="Shape" fill="#144981" d="M77.7642857,79.2846715 C77.5170918,79.2846715 77.2553571,79.2262774 77.0227041,79.080292 L70.7701531,75.3868613 C70.0721939,74.9781022 69.8395408,74.0875912 70.2466837,73.3868613 C70.6538265,72.6861314 71.5408163,72.4525547 72.2387755,72.8613139 L78.4913265,76.5547445 C79.1892857,76.9635036 79.4219388,77.8540146 79.0147959,78.5547445 C78.7530612,79.0218978 78.2586735,79.2846715 77.7642857,79.2846715 Z" opacity=".3"/><path id="Shape" fill="#446A96" d="M22.2183673,93.6058394 C21.7966837,93.6058394 21.375,93.4306569 21.0987245,93.080292 L14.1627551,84.6131387 C13.6538265,83.9854015 13.7410714,83.0656934 14.3663265,82.5547445 C14.9915816,82.0437956 15.9076531,82.1313869 16.4165816,82.7591241 L23.352551,91.2262774 C23.8614796,91.8540146 23.7742347,92.7737226 23.1489796,93.2846715 C22.8727041,93.4890511 22.5382653,93.6058394 22.2183673,93.6058394 Z" opacity=".3"/><path id="Shape" fill="#446A96" d="M12.1270408,81.2846715 C11.7053571,81.2846715 11.2836735,81.1094891 11.007398,80.7591241 L8.3755102,77.5474453 C7.86658163,76.919708 7.95382653,76 8.57908163,75.4890511 C9.20433673,74.9781022 10.1204082,75.0656934 10.6293367,75.6934307 L13.2612245,78.9051095 C13.7701531,79.5328467 13.6829082,80.4525547 13.0576531,80.9635036 C12.7813776,81.1824818 12.4469388,81.2846715 12.1270408,81.2846715 Z" opacity=".3"/><path id="Shape" fill="#198D84" d="M62.0020408,102.49635 C61.2168367,102.49635 60.5625,101.868613 60.5479592,101.065693 L60.2716837,89.1094891 C60.2571429,88.3065693 60.882398,87.6350365 61.6966837,87.620438 C62.4964286,87.5912409 63.1653061,88.2335766 63.1798469,89.0510949 L63.4561224,101.007299 C63.4706633,101.810219 62.8454082,102.481752 62.0311224,102.49635 C62.0165816,102.49635 62.0020408,102.49635 62.0020408,102.49635 Z"/><path id="Shape" fill="#198D84" d="M61.4931122,85.4744526 C60.7079082,85.4744526 60.0535714,84.8467153 60.0390306,84.0437956 L59.9808673,81.7080292 C59.9663265,80.9051095 60.5915816,80.2335766 61.4058673,80.2189781 C62.2201531,80.2043796 62.8744898,80.8321168 62.8890306,81.649635 L62.9471939,83.9854015 C62.9617347,84.7883212 62.3364796,85.459854 61.5221939,85.4744526 C61.5221939,85.4744526 61.5076531,85.4744526 61.4931122,85.4744526 Z"/><ellipse id="Oval" cx="65.012" cy="67.197" fill="#198D84" rx="3.01" ry="3.022"/><ellipse id="Oval" cx="59.995" cy="68.555" fill="#198D84" rx="1.396" ry="1.401"/><ellipse id="Oval" cx="64.532" cy="72.102" fill="#198D84" rx="1" ry="1"/><path id="Shape" fill="#FFD8C9" d="M79.3492347,92.8467153 L62.9471939,48.2481752 L71.1191327,43.7372263 L95.5622449,85.1532847 C97.3798469,88.2335766 97.2053571,92.1167883 95.0969388,95.0218978 C93.2066327,97.6350365 90.0803571,99.0218978 86.8813776,98.6715328 L86.7795918,98.6569343 C83.4061224,98.2919708 80.5270408,96.0437956 79.3492347,92.8467153 Z"/></g><path id="Shape" fill="#FFB9AE" d="M86.7795918,98.6715328 L86.8813776,98.6861314 C90.0803571,99.0364964 93.2066327,97.6350365 95.0969388,95.0364964 C95.0969388,95.0364964 95.1114796,95.0218978 95.1114796,95.0218978 L92.3487245,95.6058394 C87.7102041,96.5839416 83.0280612,94.1605839 81.1232143,89.7956204 L62.9617347,48.2481752 L79.3637755,92.8467153 C80.5270408,96.0437956 83.4061224,98.2919708 86.7795918,98.6715328 Z"/><ellipse id="Oval" cx="86.227" cy="93.518" fill="#FFB9AE" rx="4.13" ry="4.146"/><ellipse id="Oval" cx="92.887" cy="92.38" fill="#FFB9AE" rx="1.672" ry="1.679"/><ellipse id="Oval" cx="82.984" cy="87.854" fill="#FFB9AE" rx="1.44" ry="1.445"/><path id="Shape" fill="#FFE6DE" d="M86.4887755,78.6569343 C85.9653061,78.6569343 85.4709184,78.379562 85.2091837,77.8832117 L76.4410714,61.4014599 C76.0630102,60.6861314 76.3247449,59.810219 77.0372449,59.4306569 C77.7497449,59.0510949 78.6221939,59.3138686 79.0002551,60.0291971 L87.7683673,76.5109489 C88.1464286,77.2262774 87.8846939,78.1021898 87.1721939,78.4817518 C86.9686224,78.5985401 86.7214286,78.6569343 86.4887755,78.6569343 Z"/><path id="Shape" fill="#FFE6DE" d="M74.0418367,55.080292 C73.5183673,55.080292 73.0094388,54.7883212 72.7477041,54.2919708 L69.7377551,48.4817518 C69.3596939,47.7664234 69.6505102,46.8905109 70.3484694,46.5109489 C71.0609694,46.1313869 71.9334184,46.4233577 72.3114796,47.1240876 L75.3214286,52.9343066 C75.6994898,53.649635 75.4086735,54.5255474 74.7107143,54.9051095 C74.5071429,55.0364964 74.2744898,55.080292 74.0418367,55.080292 Z"/></g></g></g></g></svg>