<svg xmlns="http://www.w3.org/2000/svg" xmlns:xlink="http://www.w3.org/1999/xlink" id="Layer_1" width="512" height="358.485" x="0" y="0" enable-background="new 0 0 512 358.485" version="1.1" viewBox="0 0 512 358.485" xml:space="preserve"><rect width="207" height="181" x="164.5" y="83.5" fill="#FFF" stroke="#000" stroke-miterlimit="10"/><path fill="red" d="M501.453,56.095c-5.902-21.934-23.195-39.223-45.125-45.129C416.262,0.001,255.996,0.001,255.996,0.001	s-160.262,0-200.328,10.547C34.16,16.45,16.445,34.165,10.543,56.095C0,96.157,0,179.243,0,179.243s0,83.504,10.543,123.148	c5.906,21.93,23.195,39.223,45.129,45.129C96.156,358.485,256,358.485,256,358.485s160.262,0,200.328-10.547	c21.934-5.902,39.223-23.195,45.129-45.125C512,262.747,512,179.665,512,179.665S512.422,96.157,501.453,56.095z"/><path fill="#FFF" d="M204.969,256.001l133.27-76.758l-133.27-76.758V256.001z"/></svg>